<svg xmlns="http://www.w3.org/2000/svg" viewBox="0 0 1920.169 312.303"><defs><style>.a{fill:#fff;}.b{fill:rgba(255,255,255,0.25);}.c{fill:rgba(255,255,255,0.35);}</style></defs><g transform="translate(6.877 -491.647)"><path class="a" d="M312.334,671.5c239.195-9.11,425.555-91.533,592.011-90.435s319.713,117.763,605.344,90.435,224.919-180.147,410.941-179.853c1.249,261.314,0,312.3,0,312.3H1.016V581.066S73.139,680.61,312.334,671.5Z" transform="translate(-7.893)"/><path class="b" d="M0,712.752s244.588-131.38,507.646-122.44,412.7,161.654,740.992,122.44S1630,490.115,1907.474,565.714V783.5H0Z" transform="translate(-0.045)"/><path class="c" d="M1907.309,705.557s-161.357-131.369-565.628-121.624-487.018,87.985-821.719,71.778S186.5,573.361,1.107,647.934c-1.7,119.751,0,127.824,0,127.824h1906.2Z" transform="translate(-0.048)"/></g></svg>